<svg xmlns="http://www.w3.org/2000/svg" xmlns:xlink="http://www.w3.org/1999/xlink" viewBox="0 0 32 32" version="1.1">
	<g id="surface1">
		<path style=" " d="M 16 4.0625 L 16 19.03125 C 15.160156 18.390625 14.132813 18 13 18 C 10.25 18 8 20.25 8 23 C 8 25.75 10.25 28 13 28 C 15.75 28 18 25.75 18 23 L 18 10.9375 L 24.65625 13.4375 L 26 13.9375 L 26 7.8125 L 25.34375 7.5625 L 17.34375 4.5625 Z M 18 6.9375 L 24 9.1875 L 24 11.0625 L 18 8.8125 Z M 13 20 C 14.667969 20 16 21.332031 16 23 C 16 24.667969 14.667969 26 13 26 C 11.332031 26 10 24.667969 10 23 C 10 21.332031 11.332031 20 13 20 Z "></path>
	</g>
</svg>