<svg xmlns="http://www.w3.org/2000/svg" xmlns:xlink="http://www.w3.org/1999/xlink" viewBox="0 0 32 32" version="1.1">
	<g id="surface1">
		<path style=" " d="M 16 2.59375 L 15.3125 3.28125 L 12.6875 5.8125 L 9.09375 5.3125 L 8.125 5.15625 L 7.96875 6.125 L 7.34375 9.71875 L 4.125 11.40625 L 3.28125 11.875 L 3.6875 12.71875 L 5.28125 16 L 3.6875 19.28125 L 3.28125 20.125 L 4.125 20.59375 L 7.34375 22.28125 L 7.96875 25.875 L 8.125 26.84375 L 9.09375 26.6875 L 12.6875 26.1875 L 15.3125 28.71875 L 16 29.40625 L 16.6875 28.71875 L 19.3125 26.1875 L 22.90625 26.6875 L 23.875 26.84375 L 24.03125 25.875 L 24.65625 22.3125 L 27.875 20.59375 L 28.75 20.125 L 28.3125 19.28125 L 26.71875 16 L 28.3125 12.71875 L 28.75 11.875 L 27.875 11.40625 L 24.65625 9.6875 L 24.03125 6.125 L 23.875 5.15625 L 22.90625 5.3125 L 19.3125 5.8125 L 16.6875 3.28125 Z M 16 5.375 L 18.28125 7.59375 L 18.625 7.9375 L 19.125 7.875 L 22.21875 7.40625 L 22.78125 10.53125 L 22.875 11 L 23.3125 11.25 L 26.09375 12.75 L 24.71875 15.5625 L 24.5 16 L 24.71875 16.4375 L 26.09375 19.25 L 23.3125 20.75 L 22.875 21 L 22.78125 21.46875 L 22.21875 24.59375 L 19.125 24.125 L 18.625 24.0625 L 18.28125 24.40625 L 16 26.625 L 13.71875 24.40625 L 13.375 24.0625 L 12.90625 24.125 L 9.78125 24.59375 L 9.21875 21.46875 L 9.125 21 L 8.71875 20.75 L 5.9375 19.28125 L 7.3125 16.4375 L 7.53125 16 L 7.3125 15.5625 L 5.9375 12.71875 L 8.71875 11.25 L 9.125 11 L 9.21875 10.53125 L 9.78125 7.40625 L 12.90625 7.875 L 13.375 7.9375 L 13.71875 7.59375 Z M 10 14 L 10 18 L 11 18 L 11 16.34375 L 12 17.1875 L 12 18 L 13 18 L 13 14 L 12 14 L 12 15.65625 L 11 14.8125 L 11 14 Z M 14 14 L 14 18 L 17 18 L 17 17 L 15 17 L 15 16.5 L 16.78125 16.5 L 16.78125 15.5 L 15 15.5 L 15 15 L 17 15 L 17 14 Z M 18 14 L 18 14.5 L 19.15625 17.6875 L 19.3125 18 L 20.03125 18 L 20.5 16.65625 L 20.875 17.65625 L 21.03125 18 L 21.71875 18 L 22.96875 14.6875 L 23 14 L 22 14 L 22 14.40625 L 21.375 16.125 L 21 15.09375 L 20.8125 14.75 L 20.125 14.75 L 19.625 16.125 L 19 14.40625 L 19 14 Z "></path>
	</g>
</svg>