<svg xmlns="http://www.w3.org/2000/svg" xmlns:xlink="http://www.w3.org/1999/xlink" viewBox="0 0 32 32" version="1.1">
	<g id="surface1">
		<path style=" " d="M 6 4 L 6 24 L 10 24 L 10 28 L 26 28 L 26 8 L 22 8 L 22 4 Z M 8 6 L 20 6 L 20 22 L 8 22 Z M 12 8 L 12 10 L 14.5625 10 L 11.28125 13.28125 L 10.59375 14 L 11.28125 14.71875 L 12.5625 16 L 10.28125 18.28125 L 11.71875 19.71875 L 14.71875 16.71875 L 15.40625 16 L 14.71875 15.28125 L 13.4375 14 L 16 11.4375 L 16 14 L 18 14 L 18 8 Z M 22 10 L 24 10 L 24 26 L 12 26 L 12 24 L 22 24 Z "></path>
	</g>
</svg>