<?xml version="1.0" encoding="utf-8"?><svg xmlns="http://www.w3.org/2000/svg" xmlns:xlink="http://www.w3.org/1999/xlink"><defs><svg viewBox="0 0 24 24" id="access-time" xmlns="http://www.w3.org/2000/svg"><path d="M11.99 2C6.47 2 2 6.48 2 12s4.47 10 9.99 10C17.52 22 22 17.52 22 12S17.52 2 11.99 2zM12 20c-4.42 0-8-3.58-8-8s3.58-8 8-8 8 3.58 8 8-3.58 8-8 8zm.5-13H11v6l5.25 3.15.75-1.23-4.5-2.67z"/></svg><svg viewBox="0 0 24 24" id="account-circle" xmlns="http://www.w3.org/2000/svg"><path d="M12 2C6.48 2 2 6.48 2 12s4.48 10 10 10 10-4.48 10-10S17.52 2 12 2zm0 3c1.66 0 3 1.34 3 3s-1.34 3-3 3-3-1.34-3-3 1.34-3 3-3zm0 14.2a7.2 7.2 0 0 1-6-3.22c.03-1.99 4-3.08 6-3.08 1.99 0 5.97 1.09 6 3.08a7.2 7.2 0 0 1-6 3.22z"/></svg><svg viewBox="0 0 24 24" id="add" xmlns="http://www.w3.org/2000/svg"><path d="M19 13h-6v6h-2v-6H5v-2h6V5h2v6h6v2z"/></svg><svg viewBox="0 0 24 24" id="add-a-photo" xmlns="http://www.w3.org/2000/svg"><path d="M3 4V1h2v3h3v2H5v3H3V6H0V4h3zm3 6V7h3V4h7l1.83 2H21c1.1 0 2 .9 2 2v12c0 1.1-.9 2-2 2H5c-1.1 0-2-.9-2-2V10h3zm7 9c2.76 0 5-2.24 5-5s-2.24-5-5-5-5 2.24-5 5 2.24 5 5 5zm-3.2-5c0 1.77 1.43 3.2 3.2 3.2s3.2-1.43 3.2-3.2-1.43-3.2-3.2-3.2-3.2 1.43-3.2 3.2z"/></svg><svg viewBox="0 0 24 24" id="ads-custom" xmlns="http://www.w3.org/2000/svg"><path d="M22 22L16 3H8L2 22h6l6.527-5.594L16 22zM9.578 16L12 6.8l2.422 9.2z"/></svg><svg viewBox="0 0 24 24" id="album" xmlns="http://www.w3.org/2000/svg"><path d="M12 2C6.48 2 2 6.48 2 12s4.48 10 10 10 10-4.48 10-10S17.52 2 12 2zm0 14.5c-2.49 0-4.5-2.01-4.5-4.5S9.51 7.5 12 7.5s4.5 2.01 4.5 4.5-2.01 4.5-4.5 4.5zm0-5.5c-.55 0-1 .45-1 1s.45 1 1 1 1-.45 1-1-.45-1-1-1z"/></svg><svg viewBox="0 0 24 24" id="arrow-back" xmlns="http://www.w3.org/2000/svg"><path d="M20 11H7.83l5.59-5.59L12 4l-8 8 8 8 1.41-1.41L7.83 13H20v-2z"/></svg><svg viewBox="0 0 24 24" id="arrow-drop-down" xmlns="http://www.w3.org/2000/svg"><path d="M7 10l5 5 5-5z"/></svg><svg viewBox="0 0 24 24" id="assignment" xmlns="http://www.w3.org/2000/svg"><path d="M19 3h-4.18C14.4 1.84 13.3 1 12 1c-1.3 0-2.4.84-2.82 2H5c-1.1 0-2 .9-2 2v14c0 1.1.9 2 2 2h14c1.1 0 2-.9 2-2V5c0-1.1-.9-2-2-2zm-7 0c.55 0 1 .45 1 1s-.45 1-1 1-1-.45-1-1 .45-1 1-1zm2 14H7v-2h7v2zm3-4H7v-2h10v2zm0-4H7V7h10v2z"/></svg><svg viewBox="0 0 24 24" id="attachment" xmlns="http://www.w3.org/2000/svg"><path d="M2 12.5C2 9.46 4.46 7 7.5 7H18c2.21 0 4 1.79 4 4s-1.79 4-4 4H9.5a2.5 2.5 0 0 1 0-5H17v2H9.41c-.55 0-.55 1 0 1H18c1.1 0 2-.9 2-2s-.9-2-2-2H7.5C5.57 9 4 10.57 4 12.5S5.57 16 7.5 16H17v2H7.5C4.46 18 2 15.54 2 12.5z"/></svg><svg viewBox="0 0 24 24" id="audiotrack" xmlns="http://www.w3.org/2000/svg"><path d="M12 3v9.28a4.39 4.39 0 0 0-1.5-.28C8.01 12 6 14.01 6 16.5S8.01 21 10.5 21c2.31 0 4.2-1.75 4.45-4H15V6h4V3h-7z"/></svg><svg viewBox="0 0 24 24" id="cancel" xmlns="http://www.w3.org/2000/svg"><path d="M12 2C6.47 2 2 6.47 2 12s4.47 10 10 10 10-4.47 10-10S17.53 2 12 2zm5 13.59L15.59 17 12 13.41 8.41 17 7 15.59 10.59 12 7 8.41 8.41 7 12 10.59 15.59 7 17 8.41 13.41 12 17 15.59z"/></svg><svg viewBox="0 0 24 24" id="check" xmlns="http://www.w3.org/2000/svg"><path d="M9 16.17L4.83 12l-1.42 1.41L9 19 21 7l-1.41-1.41z"/></svg><svg viewBox="0 0 24 24" id="clear" xmlns="http://www.w3.org/2000/svg"><path d="M19 6.41L17.59 5 12 10.59 6.41 5 5 6.41 10.59 12 5 17.59 6.41 19 12 13.41 17.59 19 19 17.59 13.41 12z"/></svg><svg viewBox="0 0 24 24" id="close" xmlns="http://www.w3.org/2000/svg"><path d="M19 6.41L17.59 5 12 10.59 6.41 5 5 6.41 10.59 12 5 17.59 6.41 19 12 13.41 17.59 19 19 17.59 13.41 12z"/></svg><svg viewBox="0 0 24 24" id="closed-caption" xmlns="http://www.w3.org/2000/svg"><path d="M19 4H5a2 2 0 0 0-2 2v12a2 2 0 0 0 2 2h14c1.1 0 2-.9 2-2V6c0-1.1-.9-2-2-2zm-8 7H9.5v-.5h-2v3h2V13H11v1c0 .55-.45 1-1 1H7c-.55 0-1-.45-1-1v-4c0-.55.45-1 1-1h3c.55 0 1 .45 1 1v1zm7 0h-1.5v-.5h-2v3h2V13H18v1c0 .55-.45 1-1 1h-3c-.55 0-1-.45-1-1v-4c0-.55.45-1 1-1h3c.55 0 1 .45 1 1v1z"/></svg><svg viewBox="0 0 24 24" id="cloud-download" xmlns="http://www.w3.org/2000/svg"><path d="M19.35 10.04A7.49 7.49 0 0 0 12 4C9.11 4 6.6 5.64 5.35 8.04A5.994 5.994 0 0 0 0 14c0 3.31 2.69 6 6 6h13c2.76 0 5-2.24 5-5 0-2.64-2.05-4.78-4.65-4.96zM17 13l-5 5-5-5h3V9h4v4h3z"/></svg><svg viewBox="0 0 24 24" id="code" xmlns="http://www.w3.org/2000/svg"><path d="M9.4 16.6L4.8 12l4.6-4.6L8 6l-6 6 6 6 1.4-1.4zm5.2 0l4.6-4.6-4.6-4.6L16 6l6 6-6 6-1.4-1.4z"/></svg><svg viewBox="0 0 24 24" id="credit-card" xmlns="http://www.w3.org/2000/svg"><path d="M20 4H4c-1.11 0-1.99.89-1.99 2L2 18c0 1.11.89 2 2 2h16c1.11 0 2-.89 2-2V6c0-1.11-.89-2-2-2zm0 14H4v-6h16v6zm0-10H4V6h16v2z"/></svg><svg viewBox="0 0 24 24" id="dashboard" xmlns="http://www.w3.org/2000/svg"><path d="M3 13h8V3H3v10zm0 8h8v-6H3v6zm10 0h8V11h-8v10zm0-18v6h8V3h-8z"/></svg><svg viewBox="0 0 24 24" id="date-range" xmlns="http://www.w3.org/2000/svg"><path d="M9 11H7v2h2v-2zm4 0h-2v2h2v-2zm4 0h-2v2h2v-2zm2-7h-1V2h-2v2H8V2H6v2H5c-1.11 0-1.99.9-1.99 2L3 20a2 2 0 0 0 2 2h14c1.1 0 2-.9 2-2V6c0-1.1-.9-2-2-2zm0 16H5V9h14v11z"/></svg><svg viewBox="0 0 24 24" id="delete" xmlns="http://www.w3.org/2000/svg"><path d="M6 19c0 1.1.9 2 2 2h8c1.1 0 2-.9 2-2V7H6v12zM19 4h-3.5l-1-1h-5l-1 1H5v2h14V4z"/></svg><svg viewBox="0 0 24 24" id="drag-handle" xmlns="http://www.w3.org/2000/svg"><path d="M20 9H4v2h16V9zM4 15h16v-2H4v2z"/></svg><svg viewBox="0 0 48 48" id="drop-custom" xmlns="http://www.w3.org/2000/svg"><path stroke="#E0E0E0" d="M24 44c-7.168 0-13-5.816-13-12.971C11 24 24 4 24 4s13 20 13 27.029C37 38.184 31.168 44 24 44z"/></svg><svg viewBox="0 0 24 24" id="edit" xmlns="http://www.w3.org/2000/svg"><path d="M3 17.25V21h3.75L17.81 9.94l-3.75-3.75L3 17.25zM20.71 7.04a.996.996 0 0 0 0-1.41l-2.34-2.34a.996.996 0 0 0-1.41 0l-1.83 1.83 3.75 3.75 1.83-1.83z"/></svg><svg viewBox="0 0 24 24" id="exit-to-app" xmlns="http://www.w3.org/2000/svg"><path d="M10.09 15.59L11.5 17l5-5-5-5-1.41 1.41L12.67 11H3v2h9.67l-2.58 2.59zM19 3H5a2 2 0 0 0-2 2v4h2V5h14v14H5v-4H3v4a2 2 0 0 0 2 2h14c1.1 0 2-.9 2-2V5c0-1.1-.9-2-2-2z"/></svg><svg viewBox="0 0 24 24" id="facebook-custom" xmlns="http://www.w3.org/2000/svg"><path d="M22.676 0H1.324C.593 0 0 .593 0 1.324v21.352C0 23.408.593 24 1.324 24h11.494v-9.294H9.689v-3.621h3.129V8.41c0-3.099 1.894-4.785 4.659-4.785 1.325 0 2.464.097 2.796.141v3.24h-1.921c-1.5 0-1.792.721-1.792 1.771v2.311h3.584l-.465 3.63H16.56V24h6.115c.733 0 1.325-.592 1.325-1.324V1.324C24 .593 23.408 0 22.676 0"/></svg><svg viewBox="0 0 24 24" id="file-upload" xmlns="http://www.w3.org/2000/svg"><path d="M9 16h6v-6h4l-7-7-7 7h4zm-4 2h14v2H5z"/></svg><svg viewBox="0 0 24 24" id="format-align-center" xmlns="http://www.w3.org/2000/svg"><path d="M7 15v2h10v-2H7zm-4 6h18v-2H3v2zm0-8h18v-2H3v2zm4-6v2h10V7H7zM3 3v2h18V3H3z"/></svg><svg viewBox="0 0 24 24" id="format-align-left" xmlns="http://www.w3.org/2000/svg"><path d="M15 15H3v2h12v-2zm0-8H3v2h12V7zM3 13h18v-2H3v2zm0 8h18v-2H3v2zM3 3v2h18V3H3z"/></svg><svg viewBox="0 0 24 24" id="format-align-right" xmlns="http://www.w3.org/2000/svg"><path d="M3 21h18v-2H3v2zm6-4h12v-2H9v2zm-6-4h18v-2H3v2zm6-4h12V7H9v2zM3 3v2h18V3H3z"/></svg><svg viewBox="0 0 24 24" id="format-bold" xmlns="http://www.w3.org/2000/svg"><path d="M15.6 10.79c.97-.67 1.65-1.77 1.65-2.79 0-2.26-1.75-4-4-4H7v14h7.04c2.09 0 3.71-1.7 3.71-3.79 0-1.52-.86-2.82-2.15-3.42zM10 6.5h3c.83 0 1.5.67 1.5 1.5s-.67 1.5-1.5 1.5h-3v-3zm3.5 9H10v-3h3.5c.83 0 1.5.67 1.5 1.5s-.67 1.5-1.5 1.5z"/></svg><svg viewBox="0 0 24 24" id="format-clear" xmlns="http://www.w3.org/2000/svg"><path d="M3.27 5L2 6.27l6.97 6.97L6.5 19h3l1.57-3.66L16.73 21 18 19.73 3.55 5.27 3.27 5zM6 5v.18L8.82 8h2.4l-.72 1.68 2.1 2.1L14.21 8H20V5H6z"/></svg><svg viewBox="0 0 24 24" id="format-color-fill" xmlns="http://www.w3.org/2000/svg"><path d="M16.56 8.94L7.62 0 6.21 1.41l2.38 2.38-5.15 5.15a1.49 1.49 0 0 0 0 2.12l5.5 5.5c.29.29.68.44 1.06.44s.77-.15 1.06-.44l5.5-5.5c.59-.58.59-1.53 0-2.12zM5.21 10L10 5.21 14.79 10H5.21zM19 11.5s-2 2.17-2 3.5c0 1.1.9 2 2 2s2-.9 2-2c0-1.33-2-3.5-2-3.5z"/><path fill-opacity=".36" d="M0 20h24v4H0z"/></svg><svg viewBox="0 0 24 24" id="format-color-text" xmlns="http://www.w3.org/2000/svg"><path fill-opacity=".36" d="M0 20h24v4H0z"/><path d="M11 3L5.5 17h2.25l1.12-3h6.25l1.12 3h2.25L13 3h-2zm-1.38 9L12 5.67 14.38 12H9.62z"/></svg><svg viewBox="0 0 24 24" id="format-italic" xmlns="http://www.w3.org/2000/svg"><path d="M10 4v3h2.21l-3.42 8H6v3h8v-3h-2.21l3.42-8H18V4z"/></svg><svg viewBox="0 0 24 24" id="format-list-bulleted" xmlns="http://www.w3.org/2000/svg"><path d="M4 10.5c-.83 0-1.5.67-1.5 1.5s.67 1.5 1.5 1.5 1.5-.67 1.5-1.5-.67-1.5-1.5-1.5zm0-6c-.83 0-1.5.67-1.5 1.5S3.17 7.5 4 7.5 5.5 6.83 5.5 6 4.83 4.5 4 4.5zm0 12c-.83 0-1.5.68-1.5 1.5s.68 1.5 1.5 1.5 1.5-.68 1.5-1.5-.67-1.5-1.5-1.5zM7 19h14v-2H7v2zm0-6h14v-2H7v2zm0-8v2h14V5H7z"/></svg><svg viewBox="0 0 24 24" id="format-list-numbered" xmlns="http://www.w3.org/2000/svg"><path d="M2 17h2v.5H3v1h1v.5H2v1h3v-4H2v1zm1-9h1V4H2v1h1v3zm-1 3h1.8L2 13.1v.9h3v-1H3.2L5 10.9V10H2v1zm5-6v2h14V5H7zm0 14h14v-2H7v2zm0-6h14v-2H7v2z"/></svg><svg viewBox="0 0 24 24" id="format-underlined" xmlns="http://www.w3.org/2000/svg"><path d="M12 17c3.31 0 6-2.69 6-6V3h-2.5v8c0 1.93-1.57 3.5-3.5 3.5S8.5 12.93 8.5 11V3H6v8c0 3.31 2.69 6 6 6zm-7 2v2h14v-2H5z"/></svg><svg viewBox="0 0 24 24" id="fullscreen" xmlns="http://www.w3.org/2000/svg"><path d="M7 14H5v5h5v-2H7v-3zm-2-4h2V7h3V5H5v5zm12 7h-3v2h5v-5h-2v3zM14 5v2h3v3h2V5h-5z"/></svg><svg viewBox="0 0 24 24" id="google-custom" xmlns="http://www.w3.org/2000/svg"><path d="M12.24 10.285V14.4h6.806c-.275 1.765-2.056 5.174-6.806 5.174-4.095 0-7.439-3.389-7.439-7.574s3.345-7.574 7.439-7.574c2.33 0 3.891.989 4.785 1.849l3.254-3.138C18.189 1.186 15.479 0 12.24 0c-6.635 0-12 5.365-12 12s5.365 12 12 12c6.926 0 11.52-4.869 11.52-11.726 0-.788-.085-1.39-.189-1.989H12.24z"/></svg><svg viewBox="0 0 24 24" id="image" xmlns="http://www.w3.org/2000/svg"><path d="M21 19V5c0-1.1-.9-2-2-2H5c-1.1 0-2 .9-2 2v14c0 1.1.9 2 2 2h14c1.1 0 2-.9 2-2zM8.5 13.5l2.5 3.01L14.5 12l4.5 6H5l3.5-4.5z"/></svg><svg viewBox="0 0 24 24" id="insert-drive-file" xmlns="http://www.w3.org/2000/svg"><path d="M6 2c-1.1 0-1.99.9-1.99 2L4 20c0 1.1.89 2 1.99 2H18c1.1 0 2-.9 2-2V8l-6-6H6zm7 7V3.5L18.5 9H13z"/></svg><svg viewBox="0 0 24 24" id="keyboard-arrow-down" xmlns="http://www.w3.org/2000/svg"><path d="M7.41 7.84L12 12.42l4.59-4.58L18 9.25l-6 6-6-6z"/></svg><svg viewBox="0 0 24 24" id="keyboard-arrow-left" xmlns="http://www.w3.org/2000/svg"><path d="M15.41 16.09l-4.58-4.59 4.58-4.59L14 5.5l-6 6 6 6z"/></svg><svg viewBox="0 0 24 24" id="keyboard-arrow-right" xmlns="http://www.w3.org/2000/svg"><path d="M8.59 16.34l4.58-4.59-4.58-4.59L10 5.75l6 6-6 6z"/></svg><svg viewBox="0 0 24 24" id="keyboard-arrow-up" xmlns="http://www.w3.org/2000/svg"><path d="M7.41 15.41L12 10.83l4.59 4.58L18 14l-6-6-6 6z"/></svg><svg viewBox="0 0 24 24" id="keyboard-backspace" xmlns="http://www.w3.org/2000/svg"><path d="M21 11H6.83l3.58-3.59L9 6l-6 6 6 6 1.41-1.41L6.83 13H21z"/></svg><svg viewBox="0 0 24 24" id="library-music" xmlns="http://www.w3.org/2000/svg"><path d="M20 2H8c-1.1 0-2 .9-2 2v12c0 1.1.9 2 2 2h12c1.1 0 2-.9 2-2V4c0-1.1-.9-2-2-2zm-2 5h-3v5.5a2.5 2.5 0 0 1-5 0 2.5 2.5 0 0 1 2.5-2.5c.57 0 1.08.19 1.5.51V5h4v2zM4 6H2v14c0 1.1.9 2 2 2h14v-2H4V6z"/></svg><svg viewBox="0 0 24 24" id="link" xmlns="http://www.w3.org/2000/svg"><path d="M3.9 12c0-1.71 1.39-3.1 3.1-3.1h4V7H7c-2.76 0-5 2.24-5 5s2.24 5 5 5h4v-1.9H7c-1.71 0-3.1-1.39-3.1-3.1zM8 13h8v-2H8v2zm9-6h-4v1.9h4c1.71 0 3.1 1.39 3.1 3.1s-1.39 3.1-3.1 3.1h-4V17h4c2.76 0 5-2.24 5-5s-2.24-5-5-5z"/></svg><svg viewBox="0 0 24 24" id="local-offer" xmlns="http://www.w3.org/2000/svg"><path d="M21.41 11.58l-9-9C12.05 2.22 11.55 2 11 2H4c-1.1 0-2 .9-2 2v7c0 .55.22 1.05.59 1.42l9 9c.36.36.86.58 1.41.58.55 0 1.05-.22 1.41-.59l7-7c.37-.36.59-.86.59-1.41 0-.55-.23-1.06-.59-1.42zM5.5 7C4.67 7 4 6.33 4 5.5S4.67 4 5.5 4 7 4.67 7 5.5 6.33 7 5.5 7z"/></svg><svg viewBox="0 0 24 24" id="mail" xmlns="http://www.w3.org/2000/svg"><path d="M20 4H4c-1.1 0-1.99.9-1.99 2L2 18c0 1.1.9 2 2 2h16c1.1 0 2-.9 2-2V6c0-1.1-.9-2-2-2zm0 4l-8 5-8-5V6l8 5 8-5v2z"/></svg><svg viewBox="0 0 24 24" id="menu" xmlns="http://www.w3.org/2000/svg"><path d="M3 18h18v-2H3v2zm0-5h18v-2H3v2zm0-7v2h18V6H3z"/></svg><svg viewBox="0 0 24 24" id="mic" xmlns="http://www.w3.org/2000/svg"><path d="M12 14c1.66 0 2.99-1.34 2.99-3L15 5c0-1.66-1.34-3-3-3S9 3.34 9 5v6c0 1.66 1.34 3 3 3zm5.3-3c0 3-2.54 5.1-5.3 5.1S6.7 14 6.7 11H5c0 3.41 2.72 6.23 6 6.72V21h2v-3.28c3.28-.48 6-3.3 6-6.72h-1.7z"/></svg><svg viewBox="0 0 24 24" id="more-horiz" xmlns="http://www.w3.org/2000/svg"><path d="M6 10c-1.1 0-2 .9-2 2s.9 2 2 2 2-.9 2-2-.9-2-2-2zm12 0c-1.1 0-2 .9-2 2s.9 2 2 2 2-.9 2-2-.9-2-2-2zm-6 0c-1.1 0-2 .9-2 2s.9 2 2 2 2-.9 2-2-.9-2-2-2z"/></svg><svg viewBox="0 0 24 24" id="more-vert" xmlns="http://www.w3.org/2000/svg"><path d="M12 8c1.1 0 2-.9 2-2s-.9-2-2-2-2 .9-2 2 .9 2 2 2zm0 2c-1.1 0-2 .9-2 2s.9 2 2 2 2-.9 2-2-.9-2-2-2zm0 6c-1.1 0-2 .9-2 2s.9 2 2 2 2-.9 2-2-.9-2-2-2z"/></svg><svg viewBox="0 0 24 24" id="music-video" xmlns="http://www.w3.org/2000/svg"><path d="M21 3H3c-1.1 0-2 .9-2 2v14c0 1.1.9 2 2 2h18c1.1 0 2-.9 2-2V5c0-1.1-.9-2-2-2zm0 16H3V5h18v14zM8 15c0-1.66 1.34-3 3-3 .35 0 .69.07 1 .18V6h5v2h-3v7.03A3.003 3.003 0 0 1 11 18c-1.66 0-3-1.34-3-3z"/></svg><svg viewBox="0 0 24 24" id="new-releases" xmlns="http://www.w3.org/2000/svg"><path d="M23 12l-2.44-2.78.34-3.68-3.61-.82-1.89-3.18L12 3 8.6 1.54 6.71 4.72l-3.61.81.34 3.68L1 12l2.44 2.78-.34 3.69 3.61.82 1.89 3.18L12 21l3.4 1.46 1.89-3.18 3.61-.82-.34-3.68L23 12zm-10 5h-2v-2h2v2zm0-4h-2V7h2v6z"/></svg><svg viewBox="0 0 24 24" id="note" xmlns="http://www.w3.org/2000/svg"><path d="M22 10l-6-6H4c-1.1 0-2 .9-2 2v12.01c0 1.1.9 1.99 2 1.99l16-.01c1.1 0 2-.89 2-1.99v-8zm-7-4.5l5.5 5.5H15V5.5z"/></svg><svg viewBox="0 0 24 24" id="ondemand-video" xmlns="http://www.w3.org/2000/svg"><path d="M21 3H3c-1.11 0-2 .89-2 2v12a2 2 0 0 0 2 2h5v2h8v-2h5c1.1 0 1.99-.9 1.99-2L23 5a2 2 0 0 0-2-2zm0 14H3V5h18v12zm-5-6l-7 4V7z"/></svg><svg viewBox="0 0 24 24" id="open-in-new" xmlns="http://www.w3.org/2000/svg"><path d="M19 19H5V5h7V3H5a2 2 0 0 0-2 2v14a2 2 0 0 0 2 2h14c1.1 0 2-.9 2-2v-7h-2v7zM14 3v2h3.59l-9.83 9.83 1.41 1.41L19 6.41V10h2V3h-7z"/></svg><svg viewBox="0 0 24 24" id="pause" xmlns="http://www.w3.org/2000/svg"><path d="M6 19h4V5H6v14zm8-14v14h4V5h-4z"/></svg><svg viewBox="0 0 24 24" id="people" xmlns="http://www.w3.org/2000/svg"><path d="M16 11c1.66 0 2.99-1.34 2.99-3S17.66 5 16 5c-1.66 0-3 1.34-3 3s1.34 3 3 3zm-8 0c1.66 0 2.99-1.34 2.99-3S9.66 5 8 5C6.34 5 5 6.34 5 8s1.34 3 3 3zm0 2c-2.33 0-7 1.17-7 3.5V19h14v-2.5c0-2.33-4.67-3.5-7-3.5zm8 0c-.29 0-.62.02-.97.05 1.16.84 1.97 1.97 1.97 3.45V19h6v-2.5c0-2.33-4.67-3.5-7-3.5z"/></svg><svg viewBox="0 0 24 24" id="person" xmlns="http://www.w3.org/2000/svg"><path d="M12 12c2.21 0 4-1.79 4-4s-1.79-4-4-4-4 1.79-4 4 1.79 4 4 4zm0 2c-2.67 0-8 1.34-8 4v2h16v-2c0-2.66-5.33-4-8-4z"/></svg><svg viewBox="0 0 24 24" id="photo-size-select-actual" xmlns="http://www.w3.org/2000/svg"><path d="M21 3H3C2 3 1 4 1 5v14c0 1.1.9 2 2 2h18c1 0 2-1 2-2V5c0-1-1-2-2-2zM5 17l3.5-4.5 2.5 3.01L14.5 11l4.5 6H5z"/></svg><svg viewBox="0 0 24 24" id="pie-chart" xmlns="http://www.w3.org/2000/svg"><path d="M11 2v20c-5.07-.5-9-4.79-9-10s3.93-9.5 9-10zm2.03 0v8.99H22c-.47-4.74-4.24-8.52-8.97-8.99zm0 11.01V22c4.74-.47 8.5-4.25 8.97-8.99h-8.97z"/></svg><svg viewBox="0 0 24 24" id="play-arrow" xmlns="http://www.w3.org/2000/svg"><path d="M8 5v14l11-7z"/></svg><svg viewBox="0 0 24 24" id="playlist-add" xmlns="http://www.w3.org/2000/svg"><path d="M14 10H2v2h12v-2zm0-4H2v2h12V6zm4 8v-4h-2v4h-4v2h4v4h2v-4h4v-2h-4zM2 16h8v-2H2v2z"/></svg><svg viewBox="0 0 24 24" id="playlist-play" xmlns="http://www.w3.org/2000/svg"><path d="M19 9H2v2h17V9zm0-4H2v2h17V5zM2 15h13v-2H2v2zm15-2v6l5-3-5-3z"/></svg><svg viewBox="0 0 24 24" id="print" xmlns="http://www.w3.org/2000/svg"><path d="M19 8H5c-1.66 0-3 1.34-3 3v6h4v4h12v-4h4v-6c0-1.66-1.34-3-3-3zm-3 11H8v-5h8v5zm3-7c-.55 0-1-.45-1-1s.45-1 1-1 1 .45 1 1-.45 1-1 1zm-1-9H6v4h12V3z"/></svg><svg viewBox="0 0 24 24" id="question-answer" xmlns="http://www.w3.org/2000/svg"><path d="M21 6h-2v9H6v2c0 .55.45 1 1 1h11l4 4V7c0-.55-.45-1-1-1zm-4 6V3c0-.55-.45-1-1-1H3c-.55 0-1 .45-1 1v14l4-4h10c.55 0 1-.45 1-1z"/></svg><svg viewBox="0 0 24 24" id="queue-music" xmlns="http://www.w3.org/2000/svg"><path d="M15 6H3v2h12V6zm0 4H3v2h12v-2zM3 16h8v-2H3v2zM17 6v8.18c-.31-.11-.65-.18-1-.18-1.66 0-3 1.34-3 3s1.34 3 3 3 3-1.34 3-3V8h3V6h-5z"/></svg><svg viewBox="0 0 24 24" id="redo" xmlns="http://www.w3.org/2000/svg"><path d="M18.4 10.6C16.55 8.99 14.15 8 11.5 8c-4.65 0-8.58 3.03-9.96 7.22L3.9 16a8.002 8.002 0 0 1 7.6-5.5c1.95 0 3.73.72 5.12 1.88L13 16h9V7l-3.6 3.6z"/></svg><svg viewBox="0 0 24 24" id="remove" xmlns="http://www.w3.org/2000/svg"><path d="M19 13H5v-2h14v2z"/></svg><svg viewBox="0 0 24 24" id="repeat" xmlns="http://www.w3.org/2000/svg"><path d="M7 7h10v3l4-4-4-4v3H5v6h2V7zm10 10H7v-3l-4 4 4 4v-3h12v-6h-2v4z"/></svg><svg viewBox="0 0 24 24" id="repeat-one" xmlns="http://www.w3.org/2000/svg"><path d="M7 7h10v3l4-4-4-4v3H5v6h2V7zm10 10H7v-3l-4 4 4 4v-3h12v-6h-2v4zm-4-2V9h-1l-2 1v1h1.5v4H13z"/></svg><svg viewBox="0 0 24 24" id="reply" xmlns="http://www.w3.org/2000/svg"><path d="M10 9V5l-7 7 7 7v-4.1c5 0 8.5 1.6 11 5.1-1-5-4-10-11-11z"/></svg><svg viewBox="0 0 24 24" id="search" xmlns="http://www.w3.org/2000/svg"><path d="M15.5 14h-.79l-.28-.27A6.471 6.471 0 0 0 16 9.5 6.5 6.5 0 1 0 9.5 16c1.61 0 3.09-.59 4.23-1.57l.27.28v.79l5 4.99L20.49 19l-4.99-5zm-6 0C7.01 14 5 11.99 5 9.5S7.01 5 9.5 5 14 7.01 14 9.5 11.99 14 9.5 14z"/></svg><svg viewBox="0 0 24 24" id="settings" xmlns="http://www.w3.org/2000/svg"><path d="M19.43 12.98c.04-.32.07-.64.07-.98s-.03-.66-.07-.98l2.11-1.65c.19-.15.24-.42.12-.64l-2-3.46c-.12-.22-.39-.3-.61-.22l-2.49 1c-.52-.4-1.08-.73-1.69-.98l-.38-2.65A.488.488 0 0 0 14 2h-4c-.25 0-.46.18-.49.42l-.38 2.65c-.61.25-1.17.59-1.69.98l-2.49-1c-.23-.09-.49 0-.61.22l-2 3.46c-.13.22-.07.49.12.64l2.11 1.65c-.04.32-.07.65-.07.98s.03.66.07.98l-2.11 1.65c-.19.15-.24.42-.12.64l2 3.46c.12.22.39.3.61.22l2.49-1c.52.4 1.08.73 1.69.98l.38 2.65c.03.24.24.42.49.42h4c.25 0 .46-.18.49-.42l.38-2.65c.61-.25 1.17-.59 1.69-.98l2.49 1c.23.09.49 0 .61-.22l2-3.46c.12-.22.07-.49-.12-.64l-2.11-1.65zM12 15.5c-1.93 0-3.5-1.57-3.5-3.5s1.57-3.5 3.5-3.5 3.5 1.57 3.5 3.5-1.57 3.5-3.5 3.5z"/></svg><svg viewBox="0 0 24 24" id="shuffle" xmlns="http://www.w3.org/2000/svg"><path d="M10.59 9.17L5.41 4 4 5.41l5.17 5.17 1.42-1.41zM14.5 4l2.04 2.04L4 18.59 5.41 20 17.96 7.46 20 9.5V4h-5.5zm.33 9.41l-1.41 1.41 3.13 3.13L14.5 20H20v-5.5l-2.04 2.04-3.13-3.13z"/></svg><svg viewBox="0 0 24 24" id="skip-next" xmlns="http://www.w3.org/2000/svg"><path d="M6 18l8.5-6L6 6v12zM16 6v12h2V6h-2z"/></svg><svg viewBox="0 0 24 24" id="skip-previous" xmlns="http://www.w3.org/2000/svg"><path d="M6 6h2v12H6zm3.5 6l8.5 6V6z"/></svg><svg viewBox="0 0 24 24" id="sort" xmlns="http://www.w3.org/2000/svg"><path d="M3 18h6v-2H3v2zM3 6v2h18V6H3zm0 7h12v-2H3v2z"/></svg><svg viewBox="0 0 24 24" id="star" xmlns="http://www.w3.org/2000/svg"><path d="M12 17.27L18.18 21l-1.64-7.03L22 9.24l-7.19-.61L12 2 9.19 8.63 2 9.24l5.46 4.73L5.82 21z"/></svg><svg viewBox="0 0 24 24" id="star-border" xmlns="http://www.w3.org/2000/svg"><path d="M22 9.24l-7.19-.62L12 2 9.19 8.63 2 9.24l5.46 4.73L5.82 21 12 17.27 18.18 21l-1.63-7.03L22 9.24zM12 15.4l-3.76 2.27 1-4.28-3.32-2.88 4.38-.38L12 6.1l1.71 4.04 4.38.38-3.32 2.88 1 4.28L12 15.4z"/></svg><svg viewBox="0 0 24 24" id="style" xmlns="http://www.w3.org/2000/svg"><path d="M2.53 19.65l1.34.56v-9.03l-2.43 5.86c-.41 1.02.08 2.19 1.09 2.61zm19.5-3.7L17.07 3.98a2.013 2.013 0 0 0-1.81-1.23c-.26 0-.53.04-.79.15L7.1 5.95a1.999 1.999 0 0 0-1.08 2.6l4.96 11.97a1.998 1.998 0 0 0 2.6 1.08l7.36-3.05a1.994 1.994 0 0 0 1.09-2.6zM7.88 8.75c-.55 0-1-.45-1-1s.45-1 1-1 1 .45 1 1-.45 1-1 1zm-2 11c0 1.1.9 2 2 2h1.45l-3.45-8.34v6.34z"/></svg><svg viewBox="0 0 24 24" id="subscriptions" xmlns="http://www.w3.org/2000/svg"><path d="M20 8H4V6h16v2zm-2-6H6v2h12V2zm4 10v8c0 1.1-.9 2-2 2H4c-1.1 0-2-.9-2-2v-8c0-1.1.9-2 2-2h16c1.1 0 2 .9 2 2zm-6 4l-6-3.27v6.53L16 16z"/></svg><svg viewBox="0 0 24 24" id="translate" xmlns="http://www.w3.org/2000/svg"><path d="M12.87 15.07l-2.54-2.51.03-.03A17.52 17.52 0 0 0 14.07 6H17V4h-7V2H8v2H1v1.99h11.17C11.5 7.92 10.44 9.75 9 11.35 8.07 10.32 7.3 9.19 6.69 8h-2c.73 1.63 1.73 3.17 2.98 4.56l-5.09 5.02L4 19l5-5 3.11 3.11.76-2.04zM18.5 10h-2L12 22h2l1.12-3h4.75L21 22h2l-4.5-12zm-2.62 7l1.62-4.33L19.12 17h-3.24z"/></svg><svg viewBox="0 0 24 24" id="trending-up" xmlns="http://www.w3.org/2000/svg"><path d="M16 6l2.29 2.29-4.88 4.88-4-4L2 16.59 3.41 18l6-6 4 4 6.3-6.29L22 12V6z"/></svg><svg viewBox="0 0 24 24" id="twitter-custom" xmlns="http://www.w3.org/2000/svg"><path d="M23.954 4.569a10 10 0 0 1-2.825.775 4.958 4.958 0 0 0 2.163-2.723c-.951.555-2.005.959-3.127 1.184a4.92 4.92 0 0 0-8.384 4.482C7.691 8.094 4.066 6.13 1.64 3.161a4.822 4.822 0 0 0-.666 2.475c0 1.71.87 3.213 2.188 4.096a4.904 4.904 0 0 1-2.228-.616v.061a4.923 4.923 0 0 0 3.946 4.827 4.996 4.996 0 0 1-2.212.085 4.937 4.937 0 0 0 4.604 3.417 9.868 9.868 0 0 1-6.102 2.105c-.39 0-.779-.023-1.17-.067a13.995 13.995 0 0 0 7.557 2.209c9.054 0 13.999-7.496 13.999-13.986 0-.209 0-.42-.015-.63a9.936 9.936 0 0 0 2.46-2.548l-.047-.02z"/></svg><svg viewBox="0 0 24 24" id="undo" xmlns="http://www.w3.org/2000/svg"><path d="M12.5 8c-2.65 0-5.05.99-6.9 2.6L2 7v9h9l-3.62-3.62c1.39-1.16 3.16-1.88 5.12-1.88 3.54 0 6.55 2.31 7.6 5.5l2.37-.78C21.08 11.03 17.15 8 12.5 8z"/></svg><svg viewBox="0 0 24 24" id="videocam" xmlns="http://www.w3.org/2000/svg"><path d="M17 10.5V7c0-.55-.45-1-1-1H4c-.55 0-1 .45-1 1v10c0 .55.45 1 1 1h12c.55 0 1-.45 1-1v-3.5l4 4v-11l-4 4z"/></svg><svg viewBox="0 0 24 24" id="view-comfy" xmlns="http://www.w3.org/2000/svg"><path d="M3 9h4V5H3v4zm0 5h4v-4H3v4zm5 0h4v-4H8v4zm5 0h4v-4h-4v4zM8 9h4V5H8v4zm5-4v4h4V5h-4zm5 9h4v-4h-4v4zM3 19h4v-4H3v4zm5 0h4v-4H8v4zm5 0h4v-4h-4v4zm5 0h4v-4h-4v4zm0-14v4h4V5h-4z"/></svg><svg viewBox="0 0 24 24" id="view-list" xmlns="http://www.w3.org/2000/svg"><path d="M4 14h4v-4H4v4zm0 5h4v-4H4v4zM4 9h4V5H4v4zm5 5h12v-4H9v4zm0 5h12v-4H9v4zM9 5v4h12V5H9z"/></svg><svg viewBox="0 0 24 24" id="volume-off" xmlns="http://www.w3.org/2000/svg"><path d="M16.5 12A4.5 4.5 0 0 0 14 7.97v2.21l2.45 2.45c.03-.2.05-.41.05-.63zm2.5 0c0 .94-.2 1.82-.54 2.64l1.51 1.51A8.796 8.796 0 0 0 21 12c0-4.28-2.99-7.86-7-8.77v2.06c2.89.86 5 3.54 5 6.71zM4.27 3L3 4.27 7.73 9H3v6h4l5 5v-6.73l4.25 4.25c-.67.52-1.42.93-2.25 1.18v2.06a8.99 8.99 0 0 0 3.69-1.81L19.73 21 21 19.73l-9-9L4.27 3zM12 4L9.91 6.09 12 8.18V4z"/></svg><svg viewBox="0 0 24 24" id="volume-up" xmlns="http://www.w3.org/2000/svg"><path d="M3 9v6h4l5 5V4L7 9H3zm13.5 3A4.5 4.5 0 0 0 14 7.97v8.05c1.48-.73 2.5-2.25 2.5-4.02zM14 3.23v2.06c2.89.86 5 3.54 5 6.71s-2.11 5.85-5 6.71v2.06c4.01-.91 7-4.49 7-8.77s-2.99-7.86-7-8.77z"/></svg><svg viewBox="0 0 24 24" id="warning" xmlns="http://www.w3.org/2000/svg"><path d="M1 21h22L12 2 1 21zm12-3h-2v-2h2v2zm0-4h-2v-4h2v4z"/></svg><svg viewBox="0 0 24 24" id="web" xmlns="http://www.w3.org/2000/svg"><path d="M20 4H4c-1.1 0-1.99.9-1.99 2L2 18c0 1.1.9 2 2 2h16c1.1 0 2-.9 2-2V6c0-1.1-.9-2-2-2zm-5 14H4v-4h11v4zm0-5H4V9h11v4zm5 5h-4V9h4v9z"/></svg></defs></svg>